<svg xmlns="http://www.w3.org/2000/svg" viewBox="0 0 841.9 595.3" fill="#61DAFB">
  <g>
    <circle cx="420.9" cy="296.5" r="45.7" />
    <path
      d="M520.5 78.1c-63.2 0-127.8 25.6-187 73.7-59.2-48.1-123.8-73.7-187-73.7
      -37.4 0-68.1 9.9-89.4 29.3-22 20.1-33.3 49.6-33.3 86.2
      0 63.2 25.6 127.8 73.7 187-48.1 59.2-73.7 123.8-73.7 187
      0 37.4 9.9 68.1 29.3 89.4 20.1 22 49.6 33.3 86.2 33.3
      63.2 0 127.8-25.6 187-73.7 59.2 48.1 123.8 73.7 187 73.7
      37.4 0 68.1-9.9 89.4-29.3 22-20.1 33.3-49.6 33.3-86.2
      0-63.2-25.6-127.8-73.7-187 48.1-59.2 73.7-123.8 73.7-187
      0-37.4-9.9-68.1-29.3-89.4-20.1-22-49.6-33.3-86.2-33.3z"
      fill="none"
      stroke="#61DAFB"
      stroke-width="30"
    />
  </g>
</svg>
